<svg width="161" height="54" viewBox="0 0 161 54" fill="none" xmlns="http://www.w3.org/2000/svg">
<path d="M63.3494 17.1811V12.3636H86.0469V17.1811H77.5859V40H71.8104V17.1811H63.3494ZM113.919 26.1818C113.919 29.1955 113.348 31.7595 112.206 33.8736C111.072 35.9877 109.525 37.6025 107.564 38.718C105.611 39.8246 103.416 40.3778 100.978 40.3778C98.5224 40.3778 96.3183 39.8201 94.3661 38.7045C92.4139 37.589 90.8711 35.9742 89.7376 33.8601C88.604 31.746 88.0373 29.1866 88.0373 26.1818C88.0373 23.1681 88.604 20.6042 89.7376 18.4901C90.8711 16.3759 92.4139 14.7656 94.3661 13.6591C96.3183 12.5436 98.5224 11.9858 100.978 11.9858C103.416 11.9858 105.611 12.5436 107.564 13.6591C109.525 14.7656 111.072 16.3759 112.206 18.4901C113.348 20.6042 113.919 23.1681 113.919 26.1818ZM107.995 26.1818C107.995 24.2296 107.703 22.5833 107.118 21.2429C106.542 19.9025 105.728 18.8859 104.676 18.1932C103.623 17.5005 102.391 17.1541 100.978 17.1541C99.5659 17.1541 98.3335 17.5005 97.2809 18.1932C96.2283 18.8859 95.4097 19.9025 94.8249 21.2429C94.2492 22.5833 93.9613 24.2296 93.9613 26.1818C93.9613 28.134 94.2492 29.7803 94.8249 31.1207C95.4097 32.4612 96.2283 33.4777 97.2809 34.1705C98.3335 34.8632 99.5659 35.2095 100.978 35.2095C102.391 35.2095 103.623 34.8632 104.676 34.1705C105.728 33.4777 106.542 32.4612 107.118 31.1207C107.703 29.7803 107.995 28.134 107.995 26.1818ZM118.248 40V12.3636H129.313C131.346 12.3636 133.042 12.665 134.4 13.2678C135.759 13.8705 136.78 14.7071 137.464 15.7777C138.147 16.8393 138.489 18.0627 138.489 19.4482C138.489 20.5277 138.273 21.4768 137.841 22.2955C137.41 23.1051 136.816 23.7708 136.06 24.2926C135.314 24.8054 134.459 25.1697 133.496 25.3857V25.6555C134.549 25.7005 135.534 25.9974 136.452 26.5462C137.378 27.0949 138.129 27.8641 138.705 28.8537C139.281 29.8343 139.569 31.0038 139.569 32.3622C139.569 33.8286 139.204 35.1375 138.476 36.2891C137.756 37.4316 136.69 38.3357 135.278 39.0014C133.865 39.6671 132.124 40 130.055 40H118.248ZM124.091 35.223H128.854C130.483 35.223 131.67 34.9126 132.417 34.2919C133.163 33.6622 133.537 32.8255 133.537 31.782C133.537 31.0173 133.352 30.3426 132.983 29.7578C132.615 29.1731 132.088 28.7143 131.405 28.3814C130.73 28.0485 129.925 27.8821 128.989 27.8821H124.091V35.223ZM124.091 23.9283H128.422C129.223 23.9283 129.934 23.7888 130.555 23.5099C131.184 23.2221 131.679 22.8172 132.039 22.2955C132.408 21.7737 132.592 21.1484 132.592 20.4197C132.592 19.4212 132.237 18.616 131.526 18.0043C130.824 17.3925 129.826 17.0866 128.53 17.0866H124.091V23.9283ZM149.214 12.3636V40H143.371V12.3636H149.214Z" fill="white"/>
<g opacity="0.82">
<path d="M26.9133 11V41H41.9273C51.2087 41 51.4817 25.7368 41.9273 25.7368C52.0277 25.7368 50.6628 11 41.9273 11H26.9133Z" fill="#FF3400"/>
<path d="M26.9133 11V41M26.9133 11C26.9133 11 33.1919 11 41.9273 11M26.9133 11H41.9273M26.9133 41C26.9133 41 32.646 41 41.9273 41M26.9133 41H41.9273M41.9273 41C51.2087 41 51.4817 25.7368 41.9273 25.7368M41.9273 25.7368H33.7379M41.9273 25.7368C52.0277 25.7368 50.6628 11 41.9273 11" stroke="#FF3400"/>
</g>
<g opacity="0.82">
<path d="M41.7502 11C36.7956 11 17.4276 11 12.473 11C7.51841 11 8.86966 20.4553 12.473 20.4553C16.0764 20.4553 22.3822 20.4553 22.3822 20.4553H32.0662C32.0662 20.4553 36.7956 20.4553 41.7502 20.4553C46.7048 20.4553 46.7048 11 41.7502 11Z" fill="#2584FF"/>
<path d="M22.3822 20.4553C22.3822 20.4553 22.3822 31.7117 22.3822 37.1147C22.3822 42.5178 32.0662 42.0675 32.2914 37.1147C32.5166 32.1619 32.0662 20.4553 32.0662 20.4553H22.3822Z" fill="#2584FF"/>
<path d="M22.3822 20.4553C22.3822 20.4553 16.0764 20.4553 12.473 20.4553C8.86966 20.4553 7.51841 11 12.473 11C17.4276 11 36.7956 11 41.7502 11C46.7048 11 46.7048 20.4553 41.7502 20.4553C36.7956 20.4553 32.0662 20.4553 32.0662 20.4553M22.3822 20.4553C22.3822 20.4553 22.3822 31.7117 22.3822 37.1147C22.3822 42.5178 32.0662 42.0675 32.2914 37.1147C32.5166 32.1619 32.0662 20.4553 32.0662 20.4553M22.3822 20.4553H32.0662" stroke="#2584FF"/>
</g>
</svg>
